<svg width="66" height="66" viewBox="0 0 66 66" fill="none" xmlns="http://www.w3.org/2000/svg">
<rect width="66" height="66" rx="33" fill="#B0CFF4"/>
<path d="M15.0811 45.3235C15.0811 46.0041 15.6322 46.5559 16.3134 46.5559C16.9946 46.5559 17.5458 46.0041 17.5458 45.3235C17.5458 40.9748 20.0493 37.1248 23.9516 35.3042C25.3021 36.1818 26.9088 36.6971 28.6358 36.6971C30.3693 36.6971 31.9821 36.1784 33.3358 35.2946C34.5007 35.8445 35.5803 36.5844 36.4788 37.4823C38.574 39.5782 39.7281 42.363 39.7281 45.3235C39.7281 46.0041 40.2793 46.5559 40.9605 46.5559C41.6417 46.5559 42.1929 46.0041 42.1929 45.3235C42.1929 41.7047 40.7824 38.3013 38.2214 35.7397C37.3645 34.8823 36.3685 34.1471 35.3 33.541C36.5252 32.0512 37.2622 30.1455 37.2622 28.0706C37.2622 23.3139 33.3919 19.4441 28.6358 19.4441C23.8796 19.4441 20.0093 23.3139 20.0093 28.0706C20.0093 30.1405 20.7433 32.0415 21.9631 33.5297C17.7327 35.9116 15.0811 40.3619 15.0811 45.3235ZM28.6358 21.9088C32.0332 21.9088 34.7975 24.6732 34.7975 28.0706C34.7975 31.468 32.0332 34.2323 28.6358 34.2323C25.2384 34.2323 22.474 31.468 22.474 28.0706C22.474 24.6732 25.2384 21.9088 28.6358 21.9088Z" fill="#203B4F"/>
<path d="M50.002 31.4772C50.5082 31.4772 50.9185 31.8875 50.9185 32.3937C50.9185 32.8999 50.5082 33.3102 50.002 33.3102H41.272C40.7658 33.3102 40.3555 32.8999 40.3555 32.3937C40.3555 31.8875 40.7658 31.4772 41.272 31.4772H50.002ZM45.6423 27C46.183 27 46.6213 27.4383 46.6213 27.979V37.1876C46.6213 37.7283 46.183 38.1666 45.6423 38.1666C45.1016 38.1666 44.6632 37.7283 44.6632 37.1876V27.979C44.6632 27.4383 45.1016 27 45.6423 27Z" fill="#203B4F"/>
</svg>
