<svg width="48" height="48" viewBox="0 0 48 48" fill="none" xmlns="http://www.w3.org/2000/svg">
<path d="M0 20C0 8.95431 8.9543 0 20 0H28C39.0457 0 48 8.9543 48 20V28C48 39.0457 39.0457 48 28 48H20C8.95431 48 0 39.0457 0 28V20Z" fill="#F8F8F8"/>
<path d="M33 29V20H19V29H33ZM33 15C33.5304 15 34.0391 15.2107 34.4142 15.5858C34.7893 15.9609 35 16.4696 35 17V29C35 29.5304 34.7893 30.0391 34.4142 30.4142C34.0391 30.7893 33.5304 31 33 31H19C17.89 31 17 30.1 17 29V17C17 16.4696 17.2107 15.9609 17.5858 15.5858C17.9609 15.2107 18.4696 15 19 15H20V13H22V15H30V13H32V15H33ZM15 33H29V35H15C13.89 35 13 34.1 13 33V21H15V33ZM31 27H27V23H31V27Z" fill="#203B4F"/>
</svg>
