<svg width="48" height="48" viewBox="0 0 48 48" fill="none" xmlns="http://www.w3.org/2000/svg">
<path d="M0 20C0 8.95431 8.9543 0 20 0H28C39.0457 0 48 8.9543 48 20V28C48 39.0457 39.0457 48 28 48H20C8.95431 48 0 39.0457 0 28V20Z" fill="#F8F8F8"/>
<g clip-path="url(#clip0_18_10636)">
<path d="M31 33H17C16.7348 33 16.4804 32.8946 16.2929 32.7071C16.1054 32.5196 16 32.2652 16 32V23H13L23.327 13.612C23.5111 13.4445 23.7511 13.3516 24 13.3516C24.2489 13.3516 24.4889 13.4445 24.673 13.612L35 23H32V32C32 32.2652 31.8946 32.5196 31.7071 32.7071C31.5196 32.8946 31.2652 33 31 33ZM25 31H30V21.157L24 15.703L18 21.157V31H23V25H25V31Z" fill="#203B4F"/>
</g>
<defs>
<clipPath id="clip0_18_10636">
<rect width="24" height="24" fill="white" transform="translate(12 12)"/>
</clipPath>
</defs>
</svg>
