<svg width="36" height="28" viewBox="0 0 36 28" fill="none" xmlns="http://www.w3.org/2000/svg">
<path d="M0 25.9969C0 26.6805 0.553691 27.2348 1.23795 27.2348C1.9222 27.2348 2.47589 26.6805 2.47589 25.9969C2.47589 21.6284 4.99077 17.7609 8.91081 15.9321C10.2675 16.8137 11.8814 17.3312 13.6162 17.3312C15.3576 17.3312 16.9777 16.8102 18.3375 15.9224C19.5078 16.4748 20.5923 17.2181 21.4948 18.1201C23.5996 20.2254 24.7589 23.0229 24.7589 25.9969C24.7589 26.6805 25.3126 27.2348 25.9969 27.2348C26.6811 27.2348 27.2348 26.6805 27.2348 25.9969C27.2348 22.3616 25.8179 18.9427 23.2453 16.3695C22.3845 15.5083 21.384 14.7697 20.3107 14.1609C21.5414 12.6643 22.2818 10.75 22.2818 8.66562C22.2818 3.88732 18.3939 0 13.6162 0C8.8385 0 4.95057 3.88732 4.95057 8.66562C4.95057 10.7449 5.68795 12.6546 6.91328 14.1496C2.66365 16.5422 0 21.0127 0 25.9969ZM13.6162 2.47589C17.029 2.47589 19.8059 5.25281 19.8059 8.66562C19.8059 12.0784 17.029 14.8554 13.6162 14.8554C10.2034 14.8554 7.42647 12.0784 7.42647 8.66562C7.42647 5.25281 10.2034 2.47589 13.6162 2.47589Z" fill="#203B4F"/>
<path d="M35.0794 12.0877C35.5879 12.0877 36.0001 12.4999 36.0001 13.0084C36.0001 13.5168 35.5879 13.929 35.0794 13.929H26.3098C25.8013 13.929 25.3891 13.5168 25.3891 13.0084C25.3891 12.4999 25.8013 12.0877 26.3098 12.0877H35.0794ZM30.6999 7.59019C31.243 7.59019 31.6834 8.03051 31.6834 8.57367V17.824C31.6834 18.3672 31.243 18.8075 30.6999 18.8075C30.1567 18.8075 29.7164 18.3672 29.7164 17.824V8.57367C29.7164 8.03051 30.1567 7.59019 30.6999 7.59019Z" fill="#203B4F"/>
</svg>
