<svg width="44" height="44" viewBox="0 0 44 44" fill="none" xmlns="http://www.w3.org/2000/svg">
<path opacity="0.1" fill-rule="evenodd" clip-rule="evenodd" d="M22 6.28571C17.8323 6.28571 13.8353 7.94132 10.8883 10.8883C7.94132 13.8353 6.28571 17.8323 6.28571 22C6.28571 26.1677 7.94132 30.1647 10.8883 33.1117C13.8353 36.0587 17.8323 37.7143 22 37.7143C26.1677 37.7143 30.1647 36.0587 33.1117 33.1117C36.0587 30.1647 37.7143 26.1677 37.7143 22C37.7143 17.8323 36.0587 13.8353 33.1117 10.8883C30.1647 7.94132 26.1677 6.28571 22 6.28571ZM0 22C0 9.84971 9.84971 0 22 0C34.1503 0 44 9.84971 44 22C44 34.1503 34.1503 44 22 44C9.84971 44 0 34.1503 0 22Z" fill="#0076FF"/>
<path fill-rule="evenodd" clip-rule="evenodd" d="M22 6.28574C17.9486 6.27663 14.0519 7.84145 11.132 10.6501C10.5271 11.2095 9.72669 11.5089 8.90317 11.4839C8.07964 11.459 7.29885 11.1116 6.72889 10.5167C6.15894 9.9217 5.8454 9.12673 5.85579 8.30289C5.86617 7.47905 6.19965 6.69223 6.78442 6.11183C10.8742 2.18213 16.3283 -0.00869804 22 2.59548e-05C22.8336 2.59548e-05 23.633 0.331148 24.2224 0.920548C24.8118 1.50995 25.1429 2.30935 25.1429 3.14288C25.1429 3.97642 24.8118 4.77582 24.2224 5.36522C23.633 5.95462 22.8336 6.28574 22 6.28574Z" fill="#0076FF"/>
</svg>
