<svg width="23" height="23" viewBox="0 0 23 23" fill="none" xmlns="http://www.w3.org/2000/svg">
<path fill-rule="evenodd" clip-rule="evenodd" d="M18.2084 3.83336H17.25V1.91671H15.3334V3.83336H7.66676V1.91671H5.75011V3.83336H4.79178C3.72804 3.83336 2.87513 4.69586 2.87513 5.75002V19.1666C2.87513 20.2208 3.72804 21.0833 4.79178 21.0833H18.2084C19.2625 21.0833 20.125 20.2208 20.125 19.1666V5.75002C20.125 4.69586 19.2625 3.83336 18.2084 3.83336ZM18.2084 19.1666H4.79178V8.625H18.2084V19.1666ZM6.22927 12.4583C6.22927 11.1358 7.3026 10.0625 8.62509 10.0625C9.94758 10.0625 11.0209 11.1358 11.0209 12.4583C11.0209 13.7808 9.94758 14.8541 8.62509 14.8541C7.3026 14.8541 6.22927 13.7808 6.22927 12.4583Z" fill="#1ABA5E"/>
</svg>
