<svg width="64" height="32" viewBox="0 0 64 32" fill="none" xmlns="http://www.w3.org/2000/svg">
<path fill-rule="evenodd" clip-rule="evenodd" d="M35.3083 25.025C35.2083 25.705 34.5883 26.245 33.8483 26.245H30.1483C29.4083 26.245 28.7883 25.705 28.6983 24.975L28.4283 23.085C28.1583 22.945 27.8983 22.795 27.6383 22.625L25.8383 23.345C25.1383 23.605 24.3683 23.315 24.0283 22.695L22.1983 19.525C21.8483 18.865 21.9983 18.085 22.5583 17.645L24.0883 16.455C24.0783 16.305 24.0683 16.155 24.0683 15.995C24.0683 15.845 24.0783 15.685 24.0883 15.535L22.5683 14.345C21.9783 13.895 21.8283 13.085 22.1983 12.465L24.0483 9.275C24.3883 8.655 25.1583 8.37501 25.8383 8.645L27.6483 9.375C27.9083 9.205 28.1683 9.05501 28.4283 8.915L28.6983 7.005C28.7883 6.305 29.4083 5.755 30.1383 5.755H33.8383C34.5783 5.755 35.1983 6.295 35.2883 7.025L35.5583 8.915C35.8283 9.05501 36.0883 9.205 36.3483 9.375L38.1483 8.655C38.8583 8.395 39.6283 8.685 39.9683 9.305L41.8083 12.485C42.1683 13.145 42.0083 13.925 41.4483 14.365L39.9283 15.555C39.9383 15.705 39.9483 15.855 39.9483 16.015C39.9483 16.175 39.9383 16.325 39.9283 16.475L41.4483 17.665C42.0083 18.115 42.1683 18.895 41.8183 19.525L39.9583 22.745C39.6183 23.365 38.8483 23.645 38.1583 23.375L36.3583 22.655C36.0983 22.825 35.8383 22.975 35.5783 23.115L35.3083 25.025ZM30.6183 24.245H33.3783L33.7483 21.695L34.2783 21.475C34.7183 21.295 35.1583 21.035 35.6183 20.695L36.0683 20.355L38.4483 21.315L39.8283 18.915L37.7983 17.335L37.8683 16.775L37.8714 16.7481C37.9003 16.4977 37.9283 16.2557 37.9283 15.995C37.9283 15.725 37.8983 15.465 37.8683 15.215L37.7983 14.655L39.8283 13.075L38.4383 10.675L36.0483 11.635L35.5983 11.285C35.1783 10.965 34.7283 10.705 34.2683 10.515L33.7483 10.295L33.3783 7.745H30.6183L30.2483 10.295L29.7183 10.505C29.2783 10.695 28.8383 10.945 28.3783 11.295L27.9283 11.625L25.5483 10.675L24.1583 13.065L26.1883 14.645L26.1183 15.205C26.0883 15.465 26.0583 15.735 26.0583 15.995C26.0583 16.255 26.0783 16.525 26.1183 16.775L26.1883 17.335L24.1583 18.915L25.5383 21.315L27.9283 20.355L28.3783 20.705C28.8083 21.035 29.2383 21.285 29.7083 21.475L30.2383 21.695L30.6183 24.245ZM35.4983 15.995C35.4983 17.928 33.9313 19.495 31.9983 19.495C30.0653 19.495 28.4983 17.928 28.4983 15.995C28.4983 14.062 30.0653 12.495 31.9983 12.495C33.9313 12.495 35.4983 14.062 35.4983 15.995Z" fill="#F8F8F8"/>
</svg>
