<svg width="25" height="25" viewBox="0 0 25 25" fill="none" xmlns="http://www.w3.org/2000/svg">
<path d="M0 23.8636C0 24.4911 0.508255 24.9999 1.13636 24.9999C1.76447 24.9999 2.27272 24.4911 2.27272 23.8636C2.27272 19.8536 4.58123 16.3035 8.17959 14.6247C9.42491 15.4339 10.9064 15.909 12.4989 15.909C14.0973 15.909 15.5845 15.4308 16.8328 14.6158C17.907 15.1229 18.9025 15.8051 19.7309 16.6331C21.663 18.5657 22.7272 21.1336 22.7272 23.8636C22.7272 24.4911 23.2355 24.9999 23.8636 24.9999C24.4917 24.9999 24.9999 24.4911 24.9999 23.8636C24.9999 20.5266 23.6993 17.3883 21.3378 15.0263C20.5476 14.2356 19.6293 13.5577 18.644 12.9989C19.7737 11.6251 20.4534 9.86783 20.4534 7.95452C20.4534 3.56833 16.8845 0 12.4989 0C8.11321 0 4.54433 3.56833 4.54433 7.95452C4.54433 9.86318 5.22119 11.6161 6.34597 12.9884C2.44507 15.1847 0 19.2884 0 23.8636ZM12.4989 2.27272C15.6316 2.27272 18.1807 4.82176 18.1807 7.95452C18.1807 11.0873 15.6316 13.6363 12.4989 13.6363C9.36609 13.6363 6.81705 11.0873 6.81705 7.95452C6.81705 4.82176 9.36609 2.27272 12.4989 2.27272Z" fill="#203B4F"/>
</svg>
