<svg width="48" height="48" viewBox="0 0 48 48" fill="none" xmlns="http://www.w3.org/2000/svg">
<path d="M0 20C0 8.95431 8.9543 0 20 0H28C39.0457 0 48 8.9543 48 20V28C48 39.0457 39.0457 48 28 48H20C8.95431 48 0 39.0457 0 28V20Z" fill="#F8F8F8"/>
<g clip-path="url(#clip0_18_10644)">
<path d="M14 24C14 23.135 14.11 22.297 14.316 21.496C14.8685 21.525 15.4182 21.4008 15.9044 21.1369C16.3907 20.873 16.7945 20.4798 17.0712 20.0007C17.3479 19.5217 17.4868 18.9755 17.4725 18.4224C17.4581 17.8694 17.2912 17.3311 16.99 16.867C18.1989 15.6776 19.6908 14.8155 21.325 14.362C21.576 14.8555 21.9586 15.2699 22.4306 15.5593C22.9025 15.8488 23.4454 16.002 23.999 16.002C24.5526 16.002 25.0955 15.8488 25.5674 15.5593C26.0394 15.2699 26.422 14.8555 26.673 14.362C28.3072 14.8155 29.7991 15.6776 31.008 16.867C30.7065 17.3312 30.5393 17.8697 30.5248 18.423C30.5104 18.9763 30.6493 19.5228 30.9262 20.002C31.2031 20.4813 31.6071 20.8746 32.0937 21.1384C32.5802 21.4023 33.1303 21.5264 33.683 21.497C33.889 22.297 33.999 23.135 33.999 24C33.999 24.865 33.889 25.703 33.683 26.504C33.1305 26.4748 32.5806 26.5989 32.0942 26.8627C31.6078 27.1265 31.2039 27.5197 30.927 27.9988C30.6502 28.4779 30.5112 29.0242 30.5255 29.5773C30.5398 30.1304 30.7068 30.6689 31.008 31.133C29.7991 32.3224 28.3072 33.1845 26.673 33.638C26.422 33.1445 26.0394 32.7301 25.5674 32.4407C25.0955 32.1512 24.5526 31.998 23.999 31.998C23.4454 31.998 22.9025 32.1512 22.4306 32.4407C21.9586 32.7301 21.576 33.1445 21.325 33.638C19.6908 33.1845 18.1989 32.3224 16.99 31.133C17.2915 30.6688 17.4587 30.1303 17.4732 29.577C17.4876 29.0237 17.3487 28.4772 17.0718 27.998C16.7949 27.5187 16.3909 27.1254 15.9043 26.8616C15.4178 26.5977 14.8677 26.4736 14.315 26.503C14.11 25.704 14 24.866 14 24ZM18.804 27C19.434 28.091 19.614 29.346 19.368 30.524C19.776 30.814 20.21 31.065 20.665 31.274C21.5817 30.4528 22.7693 29.9991 24 30C25.26 30 26.438 30.471 27.335 31.274C27.79 31.065 28.224 30.814 28.632 30.524C28.3794 29.32 28.5803 28.0651 29.196 27C29.8106 25.9344 30.797 25.1332 31.966 24.75C32.0122 24.2511 32.0122 23.7489 31.966 23.25C30.7966 22.8671 29.8099 22.0658 29.195 21C28.5793 19.9349 28.3784 18.68 28.631 17.476C28.2231 17.1859 27.7889 16.9348 27.334 16.726C26.4176 17.5469 25.2303 18.0006 24 18C22.7693 18.0009 21.5817 17.5472 20.665 16.726C20.2101 16.9348 19.7759 17.1859 19.368 17.476C19.6206 18.68 19.4197 19.9349 18.804 21C18.1894 22.0656 17.203 22.8668 16.034 23.25C15.9878 23.7489 15.9878 24.2511 16.034 24.75C17.2034 25.1329 18.1901 25.9342 18.805 27H18.804ZM24 27C23.2044 27 22.4413 26.6839 21.8787 26.1213C21.3161 25.5587 21 24.7956 21 24C21 23.2044 21.3161 22.4413 21.8787 21.8787C22.4413 21.3161 23.2044 21 24 21C24.7956 21 25.5587 21.3161 26.1213 21.8787C26.6839 22.4413 27 23.2044 27 24C27 24.7956 26.6839 25.5587 26.1213 26.1213C25.5587 26.6839 24.7956 27 24 27ZM24 25C24.2652 25 24.5196 24.8946 24.7071 24.7071C24.8946 24.5196 25 24.2652 25 24C25 23.7348 24.8946 23.4804 24.7071 23.2929C24.5196 23.1054 24.2652 23 24 23C23.7348 23 23.4804 23.1054 23.2929 23.2929C23.1054 23.4804 23 23.7348 23 24C23 24.2652 23.1054 24.5196 23.2929 24.7071C23.4804 24.8946 23.7348 25 24 25Z" fill="#203B4F"/>
</g>
<defs>
<clipPath id="clip0_18_10644">
<rect width="24" height="24" fill="white" transform="translate(12 12)"/>
</clipPath>
</defs>
</svg>
