<svg width="66" height="66" viewBox="0 0 66 66" fill="none" xmlns="http://www.w3.org/2000/svg">
<rect width="66" height="66" rx="33" fill="#B0CFF4"/>
<path d="M20.5649 44.3048C20.5649 44.9291 21.0706 45.4353 21.6954 45.4353C22.3203 45.4353 22.8259 44.9291 22.8259 44.3048C22.8259 40.3156 25.1225 36.7839 28.7022 35.1137C29.9411 35.9188 31.4149 36.3915 32.9991 36.3915C34.5893 36.3915 36.0688 35.9156 37.3106 35.1049C38.3792 35.6094 39.3696 36.2881 40.1938 37.1118C42.1158 39.0344 43.1745 41.589 43.1745 44.3048C43.1745 44.9291 43.6801 45.4353 44.305 45.4353C44.9298 45.4353 45.4355 44.9291 45.4355 44.3048C45.4355 40.9851 44.1416 37.8631 41.7923 35.5132C41.0062 34.7267 40.0926 34.0523 39.1124 33.4963C40.2363 32.1297 40.9125 30.3815 40.9125 28.4781C40.9125 24.1146 37.362 20.5648 32.9991 20.5648C28.6362 20.5648 25.0858 24.1146 25.0858 28.4781C25.0858 30.3769 25.7591 32.1208 26.8781 33.486C22.9974 35.6709 20.5649 39.7533 20.5649 44.3048ZM32.9991 22.8257C36.1156 22.8257 38.6515 25.3616 38.6515 28.4781C38.6515 31.5947 36.1156 34.1305 32.9991 34.1305C29.8826 34.1305 27.3467 31.5947 27.3467 28.4781C27.3467 25.3616 29.8826 22.8257 32.9991 22.8257Z" fill="#203B4F"/>
</svg>
